Coordinates
version=1
nRows=17
nColumns=33
inDegrees=yes

Units are S.I. units (second, meters, Newtons, ...)
Angles are in degrees.

endheader
time	ground_thorax_rot_x	ground_thorax_rot_y	ground_thorax_rot_z	ground_thorax_tx	ground_thorax_ty	ground_thorax_tz	clav_prot_r	clav_elev_r	scapula_abduction_r	scapula_elevation_r	scapula_upward_rot_r	scapula_winging_r	shoulder_elv_r	plane_of_elev_r	axial_rot_r	elbow_flexion_r	pro_sup_r	wrist_flex_r	wrist_dev_r	clav_prot_l	clav_elev_l	scapula_abduction_l	scapula_elevation_l	scapula_upward_rot_l	scapula_winging_l	shoulder_elv_l	plane_of_elev_l	axial_rot_l	elbow_flexion_l	pro_sup_l	wrist_flex_l	wrist_dev_l
      5.94000000	     90.00000000	    -90.00000000	    -90.00000000	     35.81438116	    773.52705827	    -39.08402772	    -45.00000000	      4.67868096	    -42.09899846	     19.58954999	    -45.00000000	  -2269.79323073	  -1515.17954899	    146.74135023	    146.25866100	      1.23932193	    175.61153739	     12.99970413	     11.74110652	     16.07368555	     45.00000000	    -45.00000000	    -45.00000000	     13.95396396	  -3931.10183144	  -2417.28731494	     10.53076647	    -76.98301664	    350.11638770	   -318.40605824	     12.10885556	    -14.64639682
      5.95000000	     90.00000000	    -90.00000000	    -90.00000000	     32.80190654	    773.70089237	    -39.04150152	    -45.00000000	      4.59368019	    -41.75243992	     19.44084563	    -45.00000000	  -2269.93682371	  -1515.03254403	    146.51295294	    146.74735290	      1.23792256	    175.85917910	     13.09353249	     11.73604528	     15.70974870	     45.00000000	    -45.00000000	    -45.00000000	     14.12519856	  -3931.17115705	  -2417.19513716	     10.61797728	    -77.54406814	    350.17602245	   -318.44466685	     12.23377757	    -14.67731276
      5.96000000	     90.00000000	    -90.00000000	    -90.00000000	     29.74590713	    773.92580345	    -39.01547329	    -45.00000000	      4.32370858	    -41.50041884	     19.31213372	    -45.00000000	  -2269.74064655	  -1514.88328456	    146.57239445	    147.39117390	      1.25246464	    176.15954156	     13.08193237	     11.76346284	     15.36395010	     45.00000000	    -45.00000000	    -45.00000000	     14.34184587	  -3931.41160368	  -2417.07062599	     10.52943563	    -78.04577669	    350.16524251	   -318.46979264	     12.13774499	    -14.71036543
      5.97000000	     90.00000000	    -90.00000000	    -90.00000000	     26.64898511	    774.20397906	    -39.00495412	    -45.00000000	      4.22434915	    -41.16777746	     19.11448028	    -45.00000000	  -2269.86693646	  -1514.69136654	    146.38671879	    147.86645089	      1.22681985	    176.43417806	     13.16297535	     11.76645351	     14.97176729	     45.00000000	    -45.00000000	    -45.00000000	     14.59106844	  -3931.49897617	  -2417.10719085	     10.64224780	    -78.69386520	    350.21645368	   -318.49103569	     12.22702538	    -14.72653039
      5.98000000	     90.00000000	    -90.00000000	    -90.00000000	     23.51542519	    774.53662491	    -39.00956297	    -45.00000000	      3.95716225	    -40.91145401	     19.00039643	    -45.00000000	  -2269.66896015	  -1514.54854940	    146.42474423	    148.48246441	      1.21339818	    176.75877931	     13.16592891	     11.80419468	     14.62338330	     45.00000000	    -45.00000000	    -45.00000000	     14.66521244	  -3931.72582207	  -2416.80716474	     10.56127998	    -79.07447000	    350.24170044	   -318.51710113	     12.15549146	    -14.79933880
      5.99000000	     90.00000000	    -90.00000000	    -90.00000000	     20.34811854	    774.92512792	    -39.02785576	    -45.00000000	      3.83393925	    -40.59673507	     18.79677249	    -45.00000000	  -2269.76197635	  -1514.39002731	    146.24821384	    148.94622795	      1.12139654	    177.05431040	     13.25749425	     11.80490958	     14.20936573	     45.00000000	    -45.00000000	    -45.00000000	     15.11120030	  -3931.79176557	  -2416.99656293	     10.67877955	    -79.82996547	    350.24136342	   -318.52058367	     12.18118143	    -14.76843431
      6.00000000	     90.00000000	    -90.00000000	    -90.00000000	     17.14977632	    775.37074017	    -39.05773359	    -45.00000000	      3.52967989	    -40.31080448	     18.64680088	    -45.00000000	  -2269.63648356	  -1514.23970576	    146.25314231	    149.60311174	      1.13068007	    177.38057457	     13.26017034	     11.85542930	     13.79924088	     45.00000000	    -45.00000000	    -45.00000000	     15.21095038	  -3932.05818891	  -2416.75375516	     10.57173719	    -80.30504307	    350.26780023	   -318.53667752	     12.17209659	    -14.89394439
      6.01000000	     90.00000000	    -90.00000000	    -90.00000000	     13.92227733	    775.87477665	    -39.09627827	    -45.00000000	      3.34801642	    -40.01255856	     18.40704346	    -45.00000000	  -2269.74827226	  -1514.04768225	    146.11619670	    150.03664628	      1.19119192	    177.66777464	     13.28323483	     11.88015724	     13.44642031	     45.00000000	    -45.00000000	    -45.00000000	     15.53217154	  -3932.17412399	  -2416.85006022	     10.66098523	    -80.89534913	    350.25463951	   -318.51807122	     12.16908990	    -14.86054747
      6.02000000	     90.00000000	    -90.00000000	    -90.00000000	     10.66794753	    776.43892635	    -39.14000845	    -45.00000000	      3.11941960	    -39.73712755	     18.23876821	    -45.00000000	  -2269.55446392	  -1513.87468653	    146.16332555	    150.53312903	      1.07904983	    177.96865411	     13.33288312	     11.94772799	     12.98933258	     45.00000000	    -45.00000000	    -45.00000000	     15.66888116	  -3932.35831180	  -2416.61724873	     10.64366418	    -81.49297271	    350.32511469	   -318.51584891	     12.14523266	    -15.01078354
      6.03000000	     90.00000000	    -90.00000000	    -90.00000000	      7.38861852	    777.06525052	    -39.18490158	    -45.00000000	      2.82757962	    -39.39126685	     18.01592628	    -45.00000000	  -2269.69349491	  -1513.72924565	    145.96973149	    151.08527313	      1.08644826	    178.21348135	     13.37661270	     11.98458517	     12.62415877	     45.00000000	    -45.00000000	    -45.00000000	     15.96705217	  -3932.53507572	  -2416.69892479	     10.66830348	    -81.99909014	    350.31265078	   -318.47963265	     12.12210814	    -14.99115678
      6.04000000	     90.00000000	    -90.00000000	    -90.00000000	      4.08718901	    777.75608408	    -39.22667252	    -45.00000000	      2.57647306	    -39.11315259	     17.81966971	    -45.00000000	  -2269.53296944	  -1513.56218864	    146.04425043	    151.47835296	      1.10218911	    178.42176897	     13.38136353	     12.08735207	     12.17360731	     45.00000000	    -45.00000000	    -45.00000000	     16.12064502	  -3932.72164942	  -2416.51471541	     10.67207304	    -82.68422342	    350.37704259	   -318.45546794	     12.10921596	    -15.15314730
      6.05000000	     90.00000000	    -90.00000000	    -90.00000000	      0.76779914	    778.51384440	    -39.26105982	    -45.00000000	      2.32365290	    -38.79221669	     17.52754532	    -45.00000000	  -2269.62774011	  -1513.37864038	    145.90405990	    151.92189091	      1.00922033	    178.55688503	     13.46283276	     12.13827791	     11.76942299	     45.00000000	    -45.00000000	    -45.00000000	     16.41480491	  -3932.87340174	  -2416.53641108	     10.74152388	    -83.16221781	    350.39373148	   -318.41350039	     12.06623793	    -15.13589415
      6.06000000	     90.00000000	    -90.00000000	    -90.00000000	     -2.56310825	    779.34005407	    -39.28897442	    -45.00000000	      2.03122280	    -38.49959750	     17.32649523	    -45.00000000	  -2269.48953779	  -1513.21369068	    145.91781778	    152.41422334	      0.97828045	    178.62278139	     13.49208674	     12.25547666	     11.32158630	     45.00000000	    -45.00000000	    -45.00000000	     16.56584842	  -3933.06087117	  -2416.40777790	     10.75322248	    -83.80965000	    350.46769998	   -318.39525727	     12.05024719	    -15.27796264
      6.07000000	     90.00000000	    -90.00000000	    -90.00000000	     -5.88854113	    780.23001398	    -39.32363077	    -45.00000000	      1.67734436	    -38.18828185	     16.99160538	    -45.00000000	  -2269.64915694	  -1513.06184148	    145.82160755	    152.82080229	      1.04739508	    178.62733632	     13.48443951	     12.33493229	     10.92126267	     45.00000000	    -45.00000000	    -45.00000000	     16.89068179	  -3933.30163775	  -2416.42706982	     10.73367479	    -84.27494971	    350.43022341	   -318.36387278	     12.04259557	    -15.27396259
      6.08000000	     90.00000000	    -90.00000000	    -90.00000000	     -9.21262287	    781.18400234	    -39.36051340	    -45.00000000	      1.50768150	    -37.92971230	     16.78510800	    -45.00000000	  -2269.45356446	  -1512.83067382	    145.86522487	    153.13750249	      0.95768995	    178.59822830	     13.53127095	     12.44021471	     10.45671599	     45.00000000	    -45.00000000	    -45.00000000	     17.01454517	  -3933.37547625	  -2416.26586220	     10.83318010	    -84.96146649	    350.53197029	   -318.37132677	     12.03401183	    -15.38919046
      6.09000000	     90.00000000	    -90.00000000	    -90.00000000	    -12.52316677	    782.20545427	    -39.40412918	    -45.00000000	      1.41243247	    -37.69469253	     16.55770300	    -45.00000000	  -2269.36662012	  -1512.57610181	    145.76423656	    153.61233816	      0.80323877	    178.50488566	     13.59479266	     12.48494521	      9.99299000	     45.00000000	    -45.00000000	    -45.00000000	     17.17824772	  -3933.43231589	  -2416.20330550	     10.97747621	    -85.41809383	    350.59432115	   -318.40373790	     11.97945749	    -15.37195485
      6.10000000	     90.00000000	    -90.00000000	    -90.00000000	    -15.81464379	    783.29234228	    -39.45247832	    -45.00000000	      1.14710812	    -37.45015095	     16.26761237	    -45.00000000	  -2269.33220745	  -1512.34287184	    145.73783293	    154.01508048	      0.78505314	    178.36391465	     13.61193799	     12.57785510	      9.55888365	     45.00000000	    -45.00000000	    -45.00000000	     17.35651386	  -3933.60534361	  -2416.12187062	     11.02239368	    -85.97434090	    350.62016035	   -318.46344531	     11.97987459	    -15.40177698
